<?xml version="1.0" standalone="no"?>
<!DOCTYPE svg PUBLIC "-//W3C//DTD SVG 20010904//EN"
 "http://www.w3.org/TR/2001/REC-SVG-20010904/DTD/svg10.dtd">
<svg version="1.0" xmlns="http://www.w3.org/2000/svg"
 width="512.000000pt" height="512.000000pt" viewBox="0 0 512.000000 512.000000"
 preserveAspectRatio="xMidYMid meet">

<g transform="translate(0.000000,512.000000) scale(0.100000,-0.100000)"
fill="#000000" stroke="none">
<path d="M3140 4181 l0 -400 -37 -10 c-21 -6 -101 -26 -178 -45 -1044 -264
-1890 -792 -2401 -1501 -313 -434 -497 -980 -519 -1540 -3 -77 -2 -133 1 -125
3 8 31 78 61 155 67 168 122 281 208 421 338 553 853 932 1517 1118 308 86
560 119 923 120 149 1 305 -3 348 -7 l77 -9 0 -389 c0 -214 3 -389 6 -389 5 0
1881 1423 1946 1476 l27 22 -972 738 c-534 407 -979 745 -989 752 -17 13 -18
-4 -18 -387z"/>
</g>
</svg>
